<svg width="58" height="40" viewBox="0 0 58 40" fill="none" xmlns="http://www.w3.org/2000/svg">
<rect x="0.5" y="0.5" width="57" height="39" rx="15.375" fill="white" stroke="#D9D9D9"/>
<path fill-rule="evenodd" clip-rule="evenodd" d="M17.6075 27.0968H14.0938L11.459 16.987C11.3339 16.5219 11.0684 16.1108 10.6778 15.917C9.70297 15.4301 8.62883 15.0425 7.45703 14.8471V14.4578H13.1173C13.8985 14.4578 14.4844 15.0425 14.582 15.7216L15.9491 23.0141L19.4611 14.4578H22.8771L17.6075 27.0968ZM24.8301 27.0968H21.5117L24.2442 14.4578H27.5626L24.8301 27.0968ZM31.8556 17.9594C31.9532 17.2786 32.5391 16.8894 33.2227 16.8894C34.2968 16.7917 35.4669 16.9871 36.4434 17.4724L37.0293 14.7512C36.0528 14.362 34.9786 14.1665 34.0039 14.1665C30.7831 14.1665 28.4395 15.9172 28.4395 18.3469C28.4395 20.1953 30.0996 21.1658 31.2714 21.7505C32.5391 22.3335 33.0274 22.7228 32.9297 23.3058C32.9297 24.1803 31.9532 24.5695 30.9784 24.5695C29.8066 24.5695 28.6348 24.278 27.5624 23.791L26.9765 26.5139C28.1483 26.9992 29.416 27.1947 30.5878 27.1947C34.1992 27.2907 36.4434 25.5417 36.4434 22.9165C36.4434 19.6106 31.8556 19.4169 31.8556 17.9594ZM48.0566 27.0968L45.4217 14.4578H42.5916C42.0057 14.4578 41.4198 14.8471 41.2245 15.4301L36.3454 27.0968H39.7615L40.4433 25.25H44.6405L45.0311 27.0968H48.0566ZM43.0809 17.8614L44.0557 22.6248H41.3232L43.0809 17.8614Z" fill="#172B85"/>
</svg>
